<?xml version="1.0" encoding="UTF-8" standalone="no"?>
<!-- Created with Inkscape (http://www.inkscape.org/) -->
<svg xmlns:inkscape="http://www.inkscape.org/namespaces/inkscape" xmlns:sodipodi="http://sodipodi.sourceforge.net/DTD/sodipodi-0.dtd" xmlns="http://www.w3.org/2000/svg" xmlns:svg="http://www.w3.org/2000/svg" version="1.1" id="svg2" xml:space="preserve" width="793.69995" height="1122.52" viewBox="0 0 793.69995 1122.52" sodipodi:docname="97905d3c0af3cf43b686501f7d4979e7-1.pdf">
  <metadata>
    <meta name="Producer" content="Online-Convert"/>
  </metadata>
  <defs id="defs6">
    <linearGradient x1="0" y1="0" x2="1" y2="0" gradientUnits="userSpaceOnUse" gradientTransform="matrix(595.27557,0,0,-595.27557,0,420.94489)" spreadMethod="pad" id="linearGradient30">
      <stop style="stop-opacity:1;stop-color:#3651a9" offset="0" id="stop22"/>
      <stop style="stop-opacity:1;stop-color:#3651a9" offset="0.136303" id="stop24"/>
      <stop style="stop-opacity:1;stop-color:#1e3058" offset="0.880767" id="stop26"/>
      <stop style="stop-opacity:1;stop-color:#1e3058" offset="1" id="stop28"/>
    </linearGradient>
    <clipPath clipPathUnits="userSpaceOnUse" id="clipPath40">
      <path d="M 0,841.89 H 595.276 V 0 H 0 Z" id="path38"/>
    </clipPath>
    <clipPath clipPathUnits="userSpaceOnUse" id="clipPath48">
      <path d="M -2.08339,524.923 H 446.768 V 19.0515 H -2.08339 Z" id="path46"/>
    </clipPath>
    <clipPath clipPathUnits="userSpaceOnUse" id="clipPath52">
      <path d="M -2.08339,454.747 H 446.768 V 195.401 H -2.08339 Z" id="path50"/>
    </clipPath>
    <clipPath clipPathUnits="userSpaceOnUse" id="clipPath56">
      <path d="M -1.75313,252.965 H 382.117 V 19.0515 H -1.75313 Z" id="path54"/>
    </clipPath>
    <clipPath clipPathUnits="userSpaceOnUse" id="clipPath60">
      <path d="M 42.7048,524.923 H 372.59 V 340.659 H 42.7048 Z" id="path58"/>
    </clipPath>
    <linearGradient x1="0" y1="0" x2="1" y2="0" gradientUnits="userSpaceOnUse" gradientTransform="matrix(111.26375,0,0,-111.26375,253.32579,326.68805)" spreadMethod="pad" id="linearGradient122">
      <stop style="stop-opacity:1;stop-color:#ffffff" offset="0" id="stop118"/>
      <stop style="stop-opacity:1;stop-color:#a1a3a6" offset="1" id="stop120"/>
    </linearGradient>
    <linearGradient x1="0" y1="0" x2="1" y2="0" gradientUnits="userSpaceOnUse" gradientTransform="matrix(98.416534,0,0,-98.416534,250.11259,279.78082)" spreadMethod="pad" id="linearGradient142">
      <stop style="stop-opacity:1;stop-color:#a1a3a6" offset="0" id="stop138"/>
      <stop style="stop-opacity:1;stop-color:#ffffff" offset="1" id="stop140"/>
    </linearGradient>
    <clipPath clipPathUnits="userSpaceOnUse" id="clipPath152">
      <path d="M 0,841.89 H 595.276 V 0 H 0 Z" id="path150"/>
    </clipPath>
    <linearGradient x1="0" y1="0" x2="1" y2="0" gradientUnits="userSpaceOnUse" gradientTransform="matrix(81.387253,0,0,-81.387253,264.70813,353.75259)" spreadMethod="pad" id="linearGradient214">
      <stop style="stop-opacity:1;stop-color:#a1a3a6" offset="0" id="stop210"/>
      <stop style="stop-opacity:1;stop-color:#ffffff" offset="1" id="stop212"/>
    </linearGradient>
  </defs>
  <sodipodi:namedview id="namedview4" pagecolor="#ffffff" bordercolor="#666666" borderopacity="1.0" inkscape:pageshadow="2" inkscape:pageopacity="0.0" inkscape:pagecheckerboard="0"/>
  <g id="g8" inkscape:groupmode="layer" inkscape:label="97905d3c0af3cf43b686501f7d4979e7-1" transform="matrix(1.3333333,0,0,-1.3333333,0,1122.52)">
    <g id="g10">
      <g id="g12">
        <g id="g18">
          <g id="g20">
            <path d="M 0,0 H 595.275 V 841.89 H 0 Z" style="fill:url(#linearGradient30);stroke:none" id="path32"/>
          </g>
        </g>
      </g>
    </g>
    <g id="g34">
      <g id="g36" clip-path="url(#clipPath40)">
        <g id="g42">
          <g id="g44"/>
          <g id="g100">
            <g clip-path="url(#clipPath48)" opacity="0.649994" id="g98">
              <g id="g72">
                <g id="g62"/>
                <g id="g70">
                  <g clip-path="url(#clipPath52)" opacity="0.25" id="g68">
                    <g transform="translate(-1.2412,290.0021)" id="g66">
                      <path d="m 0,0 c 0.561,-0.877 1.454,-1.588 2.812,-2.251 51.453,-25.296 102.835,-50.734 154.241,-76.126 10.322,-5.109 20.668,-10.156 31.014,-15.219 1.461,-0.071 2.693,0.569 3.933,1.217 24.191,12.572 48.358,25.153 72.548,37.711 11.381,5.899 22.769,11.712 34.15,17.596 20.384,10.559 40.744,21.142 61.104,31.709 12.716,6.587 25.423,13.205 38.137,19.807 12.25,6.382 24.507,12.779 36.804,19.081 1.793,0.916 12.265,7.243 12.265,7.243 -0.079,30.184 -1.571,63.45 -1.587,93.634 0,0 -6.35,-3.167 -8.806,-4.114 -2.314,-1.145 -4.794,-2.322 -7.219,-3.586 -10.795,-5.623 -21.568,-11.27 -32.365,-16.901 C 372.865,97.212 348.69,84.639 324.539,72.011 312.171,65.551 299.875,58.995 287.546,52.503 286.338,51.871 285.208,50.9 283.685,51.121 282.974,49.952 281.67,49.613 280.573,49.028 251.217,33.651 221.838,18.307 192.514,2.858 190.366,1.722 188.747,1.674 186.575,2.748 153.958,18.97 121.316,35.129 88.604,51.169 87.238,51.84 86.29,52.566 85.706,53.507 l -40.76,23.298 v 86.337 C 30.936,156.279 16.917,149.408 2.891,142.553 1.54,141.889 0.601,141.194 0,140.27" style="fill:none;stroke:#ffffff;stroke-width:2;stroke-linecap:butt;stroke-linejoin:miter;stroke-miterlimit:10;stroke-dasharray:none;stroke-opacity:1" id="path64"/>
                    </g>
                  </g>
                </g>
              </g>
              <g id="g84">
                <g id="g74"/>
                <g id="g82">
                  <g clip-path="url(#clipPath56)" opacity="0.25" id="g80">
                    <g transform="translate(-1.2412,122.6661)" id="g78">
                      <path d="m 0,0 c 6.808,-4.06 13.75,-8.017 14.571,-8.529 0.214,-0.143 0.419,-0.293 0.64,-0.419 56.547,-30.911 113.11,-61.807 169.618,-92.798 2.188,-1.2 3.768,-1.106 5.916,-0.031 38.279,19.065 76.607,38.035 114.919,57.045 24.601,12.202 49.162,24.459 73.819,36.55 2.385,1.168 2.882,2.519 2.874,4.92 -0.062,40.847 -0.046,81.701 -0.046,122.548 0,3.302 -0.056,6.595 -0.08,9.896 -3.412,-0.379 -5.955,-2.63 -8.774,-4.194 -15.14,-8.419 -30.192,-16.996 -45.277,-25.517 -9.801,-5.536 -19.594,-11.08 -29.403,-16.593 -1.027,-0.576 -1.919,-1.216 -2.417,-2.306 0,-10.275 -0.079,-20.55 0.048,-30.833 0.031,-2.338 -0.632,-3.538 -2.788,-4.604 C 260.031,28.565 226.474,11.909 192.964,-4.817 190.571,-6.01 188.778,-6.05 186.385,-4.73 148.666,16.009 110.883,36.653 73.109,57.298 53.341,68.102 33.549,78.874 13.766,89.654 13.221,89.156 6.61,92.608 0,96.122" style="fill:none;stroke:#ffffff;stroke-width:2;stroke-linecap:butt;stroke-linejoin:miter;stroke-miterlimit:10;stroke-dasharray:none;stroke-opacity:1" id="path76"/>
                    </g>
                  </g>
                </g>
              </g>
              <g id="g96">
                <g id="g86"/>
                <g id="g94">
                  <g clip-path="url(#clipPath60)" opacity="0.25" id="g92">
                    <g transform="translate(371.3203,430.9537)" id="g90">
                      <path d="m 0,0 c -0.523,-1.302 -1.73,-1.778 -2.825,-2.396 -2.206,-1.239 -4.411,-2.492 -6.618,-3.746 -25.043,-14.41 -50.087,-28.821 -75.131,-43.199 -1.412,-0.826 -2.809,-1.794 -4.587,-1.619 -0.443,0.206 -0.904,0.412 -1.364,0.634 -29.107,14.76 -58.214,29.52 -87.336,44.279 -2.016,1.016 -4.079,2.746 -6.126,2.746 -2.063,0 -4.127,-1.73 -6.174,-2.73 -31.44,-15.442 -62.879,-30.916 -94.366,-46.295 -2.254,-1.094 -3.158,-2.269 -3.111,-4.84 0.144,-6.84 0.206,-13.712 0.096,-20.552 -0.016,-2.032 -0.064,-4.063 -0.111,-6.078 -0.048,-1.556 0.206,-2.714 0.793,-3.651 l -40.756,23.298 v 86.336 c 0.921,0.46 1.842,0.92 2.778,1.365 31.852,15.632 63.704,31.281 95.556,46.913 13.855,6.808 27.726,13.585 41.565,20.425 1.191,0.588 2.667,0.794 3.444,2.079 h 1.524 c 8.094,-4.681 16.553,-8.633 24.885,-12.855 C -111.348,56.467 -64.784,32.899 -18.235,9.3 -12.141,6.221 -6.078,3.094 0,0 Z" style="fill:none;stroke:#ffffff;stroke-width:2;stroke-linecap:butt;stroke-linejoin:miter;stroke-miterlimit:10;stroke-dasharray:none;stroke-opacity:1" id="path88"/>
                    </g>
                  </g>
                </g>
              </g>
            </g>
          </g>
        </g>
      </g>
    </g>
    <text transform="matrix(1,0,0,-1,184.2783,181.7744)" style="font-variant:normal;font-weight:bold;font-stretch:normal;font-size:19.0489px;font-family:Morabba;-inkscape-font-specification:Morabba-Bold;writing-mode:lr-tb;fill:#ffffff;fill-opacity:1;fill-rule:nonzero;stroke:none" id="text104">
      <tspan x="0 24.254965 48.332775 71.610527 96.145515 124.22359 148.02328 171.41533 188.55934 213.09433" y="0" sodipodi:role="line" id="tspan102">AUTOMATION</tspan>
    </text>
    <g id="g106">
      <g id="g108">
        <g id="g114">
          <g id="g116">
            <path d="m 254.26,353.465 c -0.671,-0.328 -0.934,-0.695 -0.934,-1.479 v 0 c 0.031,-10.999 0.028,-21.999 0.003,-33 v 0 c 0,-0.752 0.197,-1.143 0.912,-1.494 v 0 c 12.782,-6.284 25.547,-12.604 38.318,-18.912 v 0 c 2.563,-1.27 5.133,-2.523 7.703,-3.781 v 0 c 0.363,-0.016 0.671,0.142 0.978,0.304 v 0 c 6.009,3.122 12.013,6.249 18.022,9.367 v 0 c 2.827,1.467 5.658,2.91 8.484,4.372 v 0 c 5.062,2.622 10.121,5.252 15.18,7.878 v 0 c 3.157,1.635 6.315,3.28 9.474,4.92 v 0 c 3.043,1.585 6.087,3.174 9.142,4.739 v 0 c 0.446,0.228 3.048,1.8 3.048,1.8 v 0 c -0.02,7.498 -0.391,15.762 -0.395,23.261 v 0 c 0,0 -1.577,-0.787 -2.187,-1.023 v 0 c -0.576,-0.284 -1.191,-0.575 -1.794,-0.89 v 0 c -2.681,-1.397 -5.358,-2.8 -8.04,-4.2 v 0 c -6.004,-3.126 -12.008,-6.248 -18.009,-9.388 v 0 c -3.071,-1.604 -6.127,-3.232 -9.19,-4.844 v 0 c -0.3,-0.159 -0.58,-0.399 -0.959,-0.344 v 0 c -0.177,-0.291 -0.5,-0.374 -0.772,-0.52 v 0 c -7.294,-3.821 -14.592,-7.633 -21.878,-11.469 v 0 c -0.532,-0.284 -0.934,-0.296 -1.474,-0.028 v 0 c -8.102,4.029 -16.212,8.043 -24.338,12.029 v 0 c -0.339,0.166 -0.575,0.348 -0.721,0.58 v 0 l -10.125,5.788 v 21.447 c -3.481,-1.703 -6.962,-3.41 -10.448,-5.113" style="fill:url(#linearGradient122);stroke:none" id="path124"/>
          </g>
        </g>
      </g>
    </g>
    <g id="g126">
      <g id="g128">
        <g id="g134">
          <g id="g136">
            <path d="m 346.317,307.53 c -3.761,-2.091 -7.5,-4.22 -11.248,-6.338 v 0 c -2.434,-1.374 -4.866,-2.754 -7.303,-4.123 v 0 c -0.255,-0.143 -0.476,-0.301 -0.601,-0.572 v 0 c 0,-2.553 -0.02,-5.107 0.013,-7.659 v 0 c 0.007,-0.581 -0.158,-0.881 -0.694,-1.145 v 0 c -8.345,-4.117 -16.68,-8.253 -25.005,-12.409 v 0 c -0.596,-0.296 -1.039,-0.305 -1.634,0.021 v 0 c -9.372,5.153 -18.756,10.281 -28.14,15.41 v 0 c -4.912,2.684 -9.828,5.359 -14.743,8.039 v 0 c -0.139,-0.127 -1.83,0.76 -3.497,1.645 v 0 c -1.685,0.897 -3.344,1.792 -3.344,1.642 v 0 c -0.006,-7.474 -0.015,-23.175 0,-23.261 v 0 c -0.001,-0.409 6.626,-4.158 7.042,-4.419 v 0 c 0.052,-0.034 0.103,-0.073 0.159,-0.103 v 0 c 14.047,-7.68 28.098,-15.355 42.136,-23.052 v 0 c 0.543,-0.299 0.937,-0.275 1.47,-0.01 v 0 c 9.511,4.737 19.031,9.45 28.549,14.172 v 0 c 6.11,3.031 12.213,6.077 18.337,9.08 v 0 c 0.593,0.29 0.716,0.626 0.715,1.222 v 0 c -0.017,10.148 -0.011,20.297 -0.012,30.445 v 0 c 0,0.818 -0.013,1.638 -0.02,2.457 v 0 c -0.847,-0.093 -1.48,-0.652 -2.18,-1.042" style="fill:url(#linearGradient142);stroke:none" id="path144"/>
          </g>
        </g>
      </g>
    </g>
    <g id="g146">
      <g id="g148" clip-path="url(#clipPath152)">
        <g id="g154" transform="translate(338.1211,217.7697)">
          <path d="m 0,0 c 0,-3.684 0.004,-7.367 -0.002,-11.051 -0.002,-0.921 -0.016,-0.928 -1.012,-0.93 -2.139,-0.005 -4.279,-0.005 -6.419,0 -1.007,0.002 -1.017,0.008 -1.018,1.048 -0.003,6.179 -10e-4,12.358 -10e-4,18.537 0,1.928 0,1.938 -1.974,1.924 -0.707,-0.005 -1.598,0.288 -2.076,-0.127 -0.557,-0.484 -0.199,-1.422 -0.202,-2.156 -0.021,-5.941 -0.012,-11.883 -0.012,-17.824 0,-0.277 -0.009,-0.555 0,-0.831 0.011,-0.383 -0.127,-0.578 -0.548,-0.576 -2.377,0.01 -4.754,0.009 -7.131,-10e-4 -0.408,-0.002 -0.576,0.16 -0.557,0.559 0.014,0.277 0.002,0.555 0.002,0.831 -0.001,6.219 -0.001,12.438 -0.001,18.657 0,0.276 -0.016,0.554 0.004,0.831 0.03,0.439 -0.12,0.658 -0.599,0.647 -1.069,-0.024 -2.139,-0.02 -3.208,-0.021 -0.493,-10e-4 -0.681,-0.217 -0.674,-0.727 0.026,-1.782 0.01,-3.564 0.01,-5.347 0,-4.793 0.002,-9.586 -0.001,-14.378 -0.001,-1.037 -0.009,-1.044 -1.012,-1.046 -2.099,-0.005 -4.199,-0.007 -6.298,10e-4 -0.902,0.002 -0.919,0.013 -0.92,0.907 -0.007,4.159 -0.004,8.318 -0.004,12.476 0,2.892 0.095,5.787 -0.022,8.674 -0.189,4.655 2.813,6.173 5.911,6.64 0.976,0.146 1.967,0.204 2.962,0.201 5.309,-0.013 10.617,-0.004 15.926,-0.007 1.628,0 3.243,-0.105 4.804,-0.628 2.708,-0.905 4.059,-2.744 4.069,-5.589 C 0.01,7.129 0,3.564 0,0" style="fill:#ffffff;fill-opacity:1;fill-rule:nonzero;stroke:none" id="path156"/>
        </g>
        <g id="g158" transform="translate(301.1055,205.922)">
          <path d="m 0,0 c -0.412,-0.199 -0.732,-0.132 -1.042,-0.132 -7.129,-0.005 -14.259,-0.007 -21.389,-0.001 -1.431,0.002 -2.841,0.169 -4.205,0.638 -2.673,0.921 -3.986,2.701 -3.993,5.514 -0.015,5.503 -0.016,11.008 0,16.512 0.008,2.866 1.349,4.678 4.058,5.604 1.367,0.467 2.787,0.611 4.211,0.615 7.13,0.021 14.259,0.01 21.389,0.01 0.895,0 0.978,0.155 0.973,-0.972 C -0.005,26.007 0,24.225 0.001,22.442 c 0,-1.187 0.082,-1.108 -1.068,-1.111 -4.515,-0.013 -9.03,-0.03 -13.545,-0.042 -2.297,-0.006 -4.595,0.004 -6.892,-0.007 -0.88,-0.004 -0.914,-0.022 -0.884,-0.931 0.025,-0.739 -0.343,-1.682 0.182,-2.16 0.456,-0.415 1.366,-0.122 2.075,-0.123 6.337,-0.006 12.674,-0.004 19.012,-0.005 1.114,0 1.117,-10e-4 1.119,-1.158 0.002,-1.782 -0.005,-3.564 0.002,-5.345 0.005,-1.133 -0.083,-0.967 -0.975,-0.969 -6.535,-0.01 -13.07,-0.022 -19.606,-0.03 -1.82,-0.003 -1.82,-10e-4 -1.819,-1.777 0,-1.506 0,-1.515 1.563,-1.507 6.573,0.037 13.147,0.08 19.721,0.122 0.079,0 0.158,0.001 0.237,0 C -0.018,7.39 -0.008,7.39 -0.002,6.461 0.007,5.075 0,3.688 0,2.303 Z" style="fill:#ffffff;fill-opacity:1;fill-rule:nonzero;stroke:none" id="path160"/>
        </g>
        <g id="g162" transform="translate(146.6763,205.7863)">
          <path d="m 0,0 c -3.605,0 -7.21,-0.003 -10.816,0.002 -1.11,0.001 -1.143,-0.207 -1.139,1.169 0.006,1.782 -0.003,3.565 0.004,5.348 0.004,1.017 0.013,1.024 1.054,1.015 C -6.026,7.495 -1.154,7.448 3.717,7.413 5.54,7.4 7.362,7.4 9.185,7.416 c 1.061,0.009 1.064,0.028 1.072,1.043 0.005,0.594 -0.007,1.188 0.003,1.782 0.005,0.3 -0.139,0.436 -0.42,0.446 -0.277,0.01 -0.554,0.008 -0.832,0.008 -3.922,10e-4 -7.844,-0.008 -11.766,0.005 -1.587,0.006 -3.16,0.149 -4.686,0.637 -3.032,0.97 -4.486,2.906 -4.507,6.053 -0.011,1.742 -0.012,3.485 0,5.228 0.02,2.933 1.347,4.736 4.129,5.67 1.37,0.46 2.79,0.595 4.215,0.599 7.091,0.018 14.183,0.009 21.274,0.008 0.964,0 1.019,0.157 1.013,-1.05 -0.007,-1.783 -0.006,-3.565 0,-5.347 C 18.684,21.38 18.709,21.47 17.65,21.467 11.035,21.453 4.419,21.441 -2.197,21.422 -4.01,21.417 -3.697,21.589 -3.714,19.925 -3.732,18.2 -3.719,18.2 -1.95,18.2 c 3.685,0 7.369,0.014 11.054,-0.006 1.783,-0.009 3.569,-0.09 5.281,-0.66 1.979,-0.658 3.492,-1.825 4.095,-3.934 0.188,-0.66 0.191,-1.33 0.195,-2.001 C 18.686,9.975 18.68,8.351 18.678,6.727 18.675,2.88 16.873,0.782 13.061,0.223 12.043,0.073 11.019,-0.014 9.984,-0.008 6.656,0.014 3.328,0 0,0" style="fill:#ffffff;fill-opacity:1;fill-rule:nonzero;stroke:none" id="path164"/>
        </g>
        <g id="g166" transform="translate(214.5615,205.7863)">
          <path d="m 0,0 c -3.685,0 -7.369,-0.003 -11.054,0.003 -0.889,0.001 -0.901,0.015 -0.905,0.916 -0.008,1.862 -0.006,3.724 0,5.585 0.002,1.031 0.01,1.039 1.033,1.03 4.317,-0.038 8.634,-0.089 12.951,-0.12 2.219,-0.017 4.437,-0.005 6.656,-0.002 0.356,0.001 0.712,0.025 1.068,0.035 0.349,0.01 0.474,0.199 0.47,0.532 -0.01,0.752 -0.013,1.505 0.001,2.257 0.007,0.382 -0.206,0.463 -0.521,0.459 -0.277,-0.003 -0.554,0 -0.832,0 -3.843,0 -7.686,-0.003 -11.529,0.002 -1.67,0.003 -3.323,0.152 -4.921,0.671 -2.917,0.948 -4.371,2.958 -4.377,6.031 -0.005,1.823 -0.011,3.645 0.001,5.467 0.017,2.482 1.2,4.19 3.466,5.174 1.56,0.677 3.216,0.84 4.88,0.846 7.092,0.023 14.184,0.011 21.276,0.009 1.023,-0.001 1.029,-0.011 1.032,-1.038 C 18.701,26.075 18.7,24.292 18.696,22.51 18.693,21.48 18.687,21.472 17.669,21.469 11.41,21.451 5.15,21.438 -1.109,21.424 c -0.634,-0.001 -1.268,-0.02 -1.901,0.007 -0.486,0.019 -0.732,-0.115 -0.699,-0.66 0.039,-0.67 0.026,-1.346 0.003,-2.019 -0.013,-0.412 0.146,-0.567 0.553,-0.556 0.633,0.019 1.268,0.013 1.902,0.003 4.356,-0.07 8.716,0.169 13.068,-0.155 1.353,-0.102 2.659,-0.422 3.862,-1.062 1.864,-0.99 2.914,-2.56 2.988,-4.664 0.077,-2.215 0.077,-4.437 0.002,-6.653 C 18.596,3.502 17.502,1.933 15.544,0.989 13.976,0.234 12.289,0.02 10.579,0.008 7.053,-0.017 3.526,0 0,0" style="fill:#ffffff;fill-opacity:1;fill-rule:nonzero;stroke:none" id="path168"/>
        </g>
        <g id="g170" transform="translate(199.3535,222.5089)">
          <path d="m 0,0 c 0,-3.328 0.004,-6.655 -0.002,-9.982 -0.002,-0.831 -0.012,-1.657 -0.268,-2.467 -0.571,-1.806 -1.834,-2.917 -3.542,-3.577 -1.268,-0.491 -2.606,-0.685 -3.957,-0.688 -7.25,-0.016 -14.5,-0.01 -21.751,-0.006 -0.939,0 -0.947,0.014 -0.951,0.994 -0.006,1.823 -0.005,3.645 0,5.467 0.003,1.075 0.009,1.087 1.116,1.07 6.376,-0.1 12.753,-0.144 19.131,-0.124 2.023,0.007 2.03,0.002 2.019,2.03 -0.007,1.428 0.219,1.332 -1.331,1.333 -4.121,0.003 -8.241,-0.006 -12.361,0.005 -1.587,0.004 -3.166,0.098 -4.69,0.606 -2.632,0.877 -4.022,2.73 -4.041,5.498 -0.025,3.684 -0.01,7.367 -0.003,11.051 0.001,0.949 0.016,0.958 0.994,0.961 2.179,0.006 4.358,0.008 6.537,-10e-4 0.881,-0.003 0.894,-0.018 0.896,-0.934 0.007,-2.93 0,-5.862 0.004,-8.793 0.002,-0.953 0.011,-0.964 0.969,-0.964 4.041,-0.004 8.082,-0.005 12.124,0 0.888,0.002 0.9,0.018 0.902,0.919 0.006,2.932 -10e-4,5.863 0.004,8.794 0.002,0.969 0.012,0.977 0.962,0.98 2.06,0.005 4.12,0.003 6.18,0 1.05,-0.001 1.061,0.17 1.06,-1.121 C -0.002,7.367 0,3.684 0,0" style="fill:#ffffff;fill-opacity:1;fill-rule:nonzero;stroke:none" id="path172"/>
        </g>
        <g id="g174" transform="translate(446.0449,220.2784)">
          <path d="m 0,0 c 0,4.475 -0.003,8.949 0.002,13.424 0.001,0.965 0.012,0.974 0.97,0.977 2.098,0.007 4.198,0.007 6.297,0 0.975,-0.003 0.987,-0.011 0.989,-0.963 0.007,-2.931 -10e-4,-5.862 0.004,-8.792 0.002,-1.02 0.01,-1.025 1.031,-1.03 1.148,-0.006 2.298,0.021 3.445,-0.01 0.575,-0.014 0.754,0.214 0.748,0.767 -0.016,1.425 -0.005,2.851 0.024,4.275 0.048,2.411 1.303,3.98 3.463,4.916 1.484,0.644 3.061,0.8 4.644,0.827 2.732,0.046 5.465,0.017 8.198,0.01 0.883,-0.002 0.895,-0.014 0.899,-0.922 C 30.722,11.499 30.702,9.52 30.726,7.54 30.731,7.026 30.564,6.859 30.05,6.868 27.754,6.907 25.456,6.914 23.159,6.932 22.882,6.934 22.604,6.924 22.328,6.931 21.985,6.938 21.832,6.79 21.839,6.437 21.852,5.725 21.865,5.011 21.834,4.299 21.812,3.794 21.993,3.593 22.507,3.591 23.536,3.587 24.563,3.534 25.573,3.292 26.58,3.05 27.545,2.713 28.397,2.109 c 1.463,-1.037 2.215,-2.486 2.236,-4.246 0.047,-3.881 0.011,-7.761 0.036,-11.641 0.004,-0.599 -0.23,-0.729 -0.771,-0.723 -2.297,0.022 -4.594,0.003 -6.892,0.013 -0.806,0.004 -0.822,0.022 -0.824,0.886 -0.008,2.931 -0.002,5.862 -0.004,8.791 0,1.048 0.141,1.015 -1.032,1.015 -3.961,-0.001 -7.922,0 -11.883,-0.001 -1.102,0 -1.001,0.091 -1.002,-1.034 -10e-4,-2.892 0.003,-5.782 -0.003,-8.673 -0.002,-0.973 -0.013,-0.982 -0.965,-0.986 -2.099,-0.006 -4.198,-0.006 -6.298,0 -0.986,0.003 -0.993,0.011 -0.994,1.066 C -0.002,-8.949 0,-4.475 0,0" style="fill:#a1a3a6;fill-opacity:1;fill-rule:nonzero;stroke:none" id="path176"/>
        </g>
        <g id="g178" transform="translate(430.6455,205.7863)">
          <path d="m 0,0 c -3.445,0 -6.892,0.002 -10.337,-0.001 -1.233,0 -2.451,0.143 -3.642,0.452 -2.932,0.764 -4.661,2.779 -4.619,5.898 0.075,5.423 0.019,10.849 0.023,16.274 0.002,2.852 1.327,4.7 4.012,5.631 1.403,0.486 2.862,0.63 4.327,0.634 7.089,0.018 14.178,0.009 21.268,0.007 1.018,-0.001 1.025,-0.011 1.028,-1.043 0.004,-1.783 0.004,-3.564 0,-5.346 -0.003,-1.026 -0.009,-1.034 -1.029,-1.037 -6.416,-0.018 -12.832,-0.031 -19.248,-0.045 -0.514,-0.001 -1.029,-0.008 -1.544,-0.008 -0.342,-0.001 -0.509,-0.158 -0.486,-0.509 0.01,-0.157 10e-4,-0.316 10e-4,-0.474 0,-3.999 -0.003,-7.999 0.002,-11.998 10e-4,-0.978 0.012,-1.015 0.976,-1.017 4.16,-0.01 8.318,0.002 12.477,0.011 2.692,0.006 5.386,0.004 8.078,0.043 C 11.93,7.481 12.083,7.243 12.073,6.641 12.039,4.701 12.068,2.76 12.057,0.819 12.053,0.02 12.035,0.005 11.17,0.003 7.724,-0.004 4.278,0 0.832,0 Z" style="fill:#a1a3a6;fill-opacity:1;fill-rule:nonzero;stroke:none" id="path180"/>
        </g>
        <g id="g182" transform="translate(251.9136,234.6818)">
          <path d="m 0,0 c 4.713,0 9.427,0.002 14.14,-0.002 0.936,0 1.062,0.231 1.056,-1.006 C 15.187,-2.869 15.2,-4.73 15.191,-6.591 15.187,-7.408 15.173,-7.42 14.329,-7.426 11.28,-7.446 8.23,-7.457 5.182,-7.472 4.057,-7.478 4.168,-7.403 4.168,-8.503 c -0.001,-6.217 0,-12.434 0,-18.65 0,-0.239 -0.001,-0.476 0,-0.713 0.007,-1.068 0.054,-1.034 -1.038,-1.03 -1.981,0.004 -3.961,-0.003 -5.941,0.002 -1.426,0.004 -1.291,-0.149 -1.291,1.25 -0.003,6.098 0.002,12.196 -0.006,18.294 -0.001,0.585 0.245,1.311 -0.122,1.719 -0.381,0.423 -1.119,0.146 -1.697,0.152 -2.851,0.031 -5.702,0.034 -8.553,0.053 -0.892,0.006 -0.902,0.016 -0.906,0.911 -0.008,1.783 -0.001,3.565 -0.003,5.346 -0.001,1.346 -0.031,1.166 1.131,1.167 C -9.505,0.003 -4.752,0 0,0" style="fill:#ffffff;fill-opacity:1;fill-rule:nonzero;stroke:none" id="path184"/>
        </g>
        <g id="g186" transform="translate(381.877,234.6818)">
          <path d="m 0,0 c 4.753,0 9.506,0.002 14.259,-0.001 1.006,-0.001 1.012,-0.01 1.015,-1.044 C 15.279,-2.866 15.28,-4.687 15.273,-6.51 15.27,-7.41 15.26,-7.421 14.372,-7.426 11.362,-7.445 8.354,-7.457 5.344,-7.472 4.121,-7.478 4.248,-7.381 4.248,-8.541 4.246,-14.837 4.247,-21.133 4.247,-27.429 c 0,-0.276 -0.016,-0.554 0.003,-0.831 0.03,-0.442 -0.129,-0.643 -0.604,-0.64 -2.375,0.014 -4.752,0.011 -7.128,0.003 -0.421,-0.002 -0.559,0.196 -0.541,0.581 0.011,0.276 10e-4,0.554 10e-4,0.832 v 18.531 c 0,0.237 -0.03,0.479 0.005,0.712 0.097,0.647 -0.203,0.783 -0.799,0.781 -3.168,-0.011 -6.336,0.021 -9.504,0.03 -1.012,0.003 -0.992,-0.052 -0.99,0.954 0.006,1.861 -0.003,3.722 0.005,5.583 0.004,0.877 0.018,0.89 0.928,0.891 C -9.585,0.002 -4.792,0 0,0" style="fill:#a1a3a6;fill-opacity:1;fill-rule:nonzero;stroke:none" id="path188"/>
        </g>
        <g id="g190" transform="translate(408.8984,220.1251)">
          <path d="m 0,0 c 0,-4.434 0.002,-8.867 -0.002,-13.3 -0.001,-1.028 -0.01,-1.035 -1.033,-1.037 -2.019,-0.005 -4.038,-0.004 -6.057,-10e-4 -1.255,0.003 -1.169,-0.125 -1.17,1.131 v 12.23 c 0,4.83 -0.002,9.659 0.002,14.488 0,1.032 0.009,1.041 1.026,1.044 2.019,0.006 4.038,10e-4 6.057,0.003 1.224,10e-4 1.179,0.093 1.178,-1.14 C -0.002,8.945 0,4.473 0,0" style="fill:#a1a3a6;fill-opacity:1;fill-rule:nonzero;stroke:none" id="path192"/>
        </g>
        <g id="g194" transform="translate(352.3721,223.9874)">
          <path d="m 0,0 c 3.207,-0.001 6.414,0 9.621,-0.002 1.196,0 1.131,0.123 1.13,-1.17 -10e-4,-1.82 0.006,-3.641 -0.003,-5.462 -0.005,-0.851 -0.018,-0.869 -0.825,-0.868 -5.701,0.004 -11.402,0.016 -17.104,0.024 -0.989,0.002 -1.98,0.039 -2.968,-0.008 -0.647,-0.032 -0.803,0.225 -0.793,0.825 0.029,1.939 0.017,3.879 0.006,5.818 -0.004,0.706 -0.059,0.866 0.84,0.858 C -6.731,-0.021 -3.365,0 0,0" style="fill:#ffffff;fill-opacity:1;fill-rule:nonzero;stroke:none" id="path196"/>
        </g>
      </g>
    </g>
    <g id="g198">
      <g id="g200">
        <g id="g206">
          <g id="g208">
            <path d="m 300.317,376.162 c -0.192,-0.319 -0.559,-0.37 -0.856,-0.516 v 0 c -3.437,-1.7 -6.883,-3.384 -10.324,-5.075 v 0 c -7.913,-3.882 -15.826,-7.77 -23.739,-11.654 v 0 c -0.233,-0.11 -0.461,-0.225 -0.69,-0.339 v 0 -21.447 l 10.125,-5.788 c -0.146,0.232 -0.21,0.52 -0.197,0.906 v 0 c 0.012,0.501 0.023,1.006 0.027,1.511 v 0 c 0.028,1.699 0.013,3.406 -0.024,5.105 v 0 c -0.011,0.639 0.214,0.931 0.773,1.203 v 0 c 7.822,3.82 15.633,7.664 23.443,11.501 v 0 c 0.508,0.247 1.021,0.677 1.533,0.677 v 0 c 0.51,0 1.022,-0.43 1.522,-0.682 v 0 c 7.235,-3.666 14.466,-7.332 21.697,-11 v 0 c 0.114,-0.055 0.229,-0.106 0.338,-0.157 v 0 c 0.443,-0.043 0.789,0.196 1.14,0.401 v 0 c 6.221,3.573 12.443,7.153 18.664,10.733 v 0 c 0.549,0.311 1.097,0.624 1.645,0.93 v 0 c 0.271,0.154 0.571,0.272 0.702,0.595 v 0 c -1.511,0.769 -3.017,1.547 -4.531,2.311 v 0 c -11.563,5.862 -23.131,11.718 -34.687,17.592 v 0 c -2.07,1.048 -4.171,2.03 -6.182,3.193 v 0 z" style="fill:url(#linearGradient214);stroke:none" id="path216"/>
          </g>
        </g>
      </g>
    </g>
  </g>
</svg>
