<?xml version="1.0" encoding="UTF-8" standalone="no"?>
<!-- Created with Inkscape (http://www.inkscape.org/) -->
<svg xmlns:inkscape="http://www.inkscape.org/namespaces/inkscape" xmlns:sodipodi="http://sodipodi.sourceforge.net/DTD/sodipodi-0.dtd" xmlns="http://www.w3.org/2000/svg" xmlns:svg="http://www.w3.org/2000/svg" version="1.1" id="svg2" xml:space="preserve" width="790.83197" height="1122.52" viewBox="0 0 790.83197 1122.52" sodipodi:docname="97905d3c0af3cf43b686501f7d4979e7-2.pdf">
  <metadata>
    <meta name="Producer" content="Online-Convert"/>
  </metadata>
  <defs id="defs6">
    <linearGradient x1="0" y1="0" x2="1" y2="0" gradientUnits="userSpaceOnUse" gradientTransform="matrix(240.40186,631.17377,631.17377,-240.40186,448.98596,132.54588)" spreadMethod="pad" id="linearGradient30">
      <stop style="stop-opacity:1;stop-color:#3651a9" offset="0" id="stop22"/>
      <stop style="stop-opacity:1;stop-color:#3651a9" offset="0.136303" id="stop24"/>
      <stop style="stop-opacity:1;stop-color:#1e3058" offset="0.880767" id="stop26"/>
      <stop style="stop-opacity:1;stop-color:#1e3058" offset="1" id="stop28"/>
    </linearGradient>
    <clipPath clipPathUnits="userSpaceOnUse" id="clipPath44">
      <path d="M 0,841.89 H 595.276 V 0 H 0 Z" id="path42"/>
    </clipPath>
    <linearGradient x1="0" y1="0" x2="1" y2="0" gradientUnits="userSpaceOnUse" gradientTransform="matrix(79.088188,0,0,-79.088188,468.83691,765.56873)" spreadMethod="pad" id="linearGradient114">
      <stop style="stop-opacity:1;stop-color:#a6a4a5" offset="0" id="stop108"/>
      <stop style="stop-opacity:1;stop-color:#253d75" offset="0.722978" id="stop110"/>
      <stop style="stop-opacity:1;stop-color:#253d75" offset="1" id="stop112"/>
    </linearGradient>
    <linearGradient x1="0" y1="0" x2="1" y2="0" gradientUnits="userSpaceOnUse" gradientTransform="matrix(71.498756,0,0,-71.498756,466.50256,731.49103)" spreadMethod="pad" id="linearGradient136">
      <stop style="stop-opacity:1;stop-color:#3551a9" offset="0" id="stop130"/>
      <stop style="stop-opacity:1;stop-color:#3551a9" offset="0.503743" id="stop132"/>
      <stop style="stop-opacity:1;stop-color:#1e3058" offset="1" id="stop134"/>
    </linearGradient>
    <linearGradient x1="0" y1="0" x2="1" y2="0" gradientUnits="userSpaceOnUse" gradientTransform="matrix(59.127129,0,0,-59.127129,477.10608,785.2309)" spreadMethod="pad" id="linearGradient158">
      <stop style="stop-opacity:1;stop-color:#3551a9" offset="0" id="stop152"/>
      <stop style="stop-opacity:1;stop-color:#3551a9" offset="0.503743" id="stop154"/>
      <stop style="stop-opacity:1;stop-color:#1e3058" offset="1" id="stop156"/>
    </linearGradient>
    <clipPath clipPathUnits="userSpaceOnUse" id="clipPath168">
      <path d="M 0,841.89 H 595.276 V 0 H 0 Z" id="path166"/>
    </clipPath>
    <clipPath clipPathUnits="userSpaceOnUse" id="clipPath176">
      <path d="M -0.920288,532.717 H 447.931 V 26.845 H -0.920288 Z" id="path174"/>
    </clipPath>
    <clipPath clipPathUnits="userSpaceOnUse" id="clipPath180">
      <path d="M -0.920288,462.541 H 447.931 V 203.195 H -0.920288 Z" id="path178"/>
    </clipPath>
    <linearGradient x1="0" y1="0" x2="1" y2="0" gradientUnits="userSpaceOnUse" gradientTransform="matrix(448.852,0,0,448.852,-0.920294,509.022)" spreadMethod="pad" id="linearGradient190">
      <stop style="stop-opacity:1;stop-color:#3651a9" offset="0" id="stop182"/>
      <stop style="stop-opacity:1;stop-color:#3651a9" offset="0.136303" id="stop184"/>
      <stop style="stop-opacity:1;stop-color:#1e3058" offset="0.880767" id="stop186"/>
      <stop style="stop-opacity:1;stop-color:#1e3058" offset="1" id="stop188"/>
    </linearGradient>
    <clipPath clipPathUnits="userSpaceOnUse" id="clipPath194">
      <path d="M -0.590042,260.758 H 383.28 V 26.845 H -0.590042 Z" id="path192"/>
    </clipPath>
    <linearGradient x1="0" y1="0" x2="1" y2="0" gradientUnits="userSpaceOnUse" gradientTransform="matrix(383.87,0,0,383.87,-0.590035,698.088)" spreadMethod="pad" id="linearGradient204">
      <stop style="stop-opacity:1;stop-color:#3651a9" offset="0" id="stop196"/>
      <stop style="stop-opacity:1;stop-color:#3651a9" offset="0.136303" id="stop198"/>
      <stop style="stop-opacity:1;stop-color:#1e3058" offset="0.880767" id="stop200"/>
      <stop style="stop-opacity:1;stop-color:#1e3058" offset="1" id="stop202"/>
    </linearGradient>
    <clipPath clipPathUnits="userSpaceOnUse" id="clipPath208">
      <path d="M 43.8679,532.717 H 373.753 V 348.452 H 43.8679 Z" id="path206"/>
    </clipPath>
    <linearGradient x1="0" y1="0" x2="1" y2="0" gradientUnits="userSpaceOnUse" gradientTransform="matrix(329.885,0,0,329.885,43.8679,401.305)" spreadMethod="pad" id="linearGradient218">
      <stop style="stop-opacity:1;stop-color:#3651a9" offset="0" id="stop210"/>
      <stop style="stop-opacity:1;stop-color:#3651a9" offset="0.136303" id="stop212"/>
      <stop style="stop-opacity:1;stop-color:#1e3058" offset="0.880767" id="stop214"/>
      <stop style="stop-opacity:1;stop-color:#1e3058" offset="1" id="stop216"/>
    </linearGradient>
  </defs>
  <sodipodi:namedview id="namedview4" pagecolor="#ffffff" bordercolor="#666666" borderopacity="1.0" inkscape:pageshadow="2" inkscape:pageopacity="0.0" inkscape:pagecheckerboard="0"/>
  <g id="g8" inkscape:groupmode="layer" inkscape:label="97905d3c0af3cf43b686501f7d4979e7-2" transform="matrix(1.3333333,0,0,-1.3333333,0,1122.52)">
    <g id="g10">
      <g id="g12">
        <g id="g18">
          <g id="g20">
            <path d="m 524.54,0 h 68.584 V 841.89 H 524.54 Z" style="fill:url(#linearGradient30);stroke:none" id="path32"/>
          </g>
        </g>
      </g>
    </g>
    <text transform="matrix(1,0,0,-1,179.1416,731.4502)" style="font-variant:normal;font-weight:bold;font-stretch:normal;font-size:16.1463px;font-family:Morabba;-inkscape-font-specification:Morabba-Bold;writing-mode:lr-tb;fill:#3551a9;fill-opacity:1;fill-rule:nonzero;stroke:none" id="text36">
      <tspan x="0 20.559084 40.968006 60.698784 81.495216 105.29487 125.46644 145.2941 159.82576 180.62219" y="0" sodipodi:role="line" id="tspan34">AUTOMATION</tspan>
    </text>
    <g id="g38">
      <g id="g40" clip-path="url(#clipPath44)">
        <g id="g46" transform="translate(309.5418,761.9601)">
          <path d="m 0,0 c 0,-3.123 0.003,-6.245 -0.002,-9.367 -0.001,-0.78 -0.012,-0.787 -0.857,-0.789 -1.814,-0.004 -3.627,-0.004 -5.441,0 -0.854,0.002 -0.862,0.008 -0.863,0.889 -0.002,5.238 -10e-4,10.475 -10e-4,15.712 0,1.635 0,1.643 -1.673,1.631 -0.6,-0.004 -1.354,0.245 -1.76,-0.107 -0.471,-0.41 -0.169,-1.205 -0.171,-1.828 -0.017,-5.036 -0.009,-10.072 -0.01,-15.108 0,-0.235 -0.007,-0.47 0,-0.705 0.009,-0.324 -0.108,-0.49 -0.464,-0.488 -2.015,0.009 -4.03,0.009 -6.045,-10e-4 -0.346,-0.002 -0.488,0.136 -0.472,0.474 0.011,0.235 0.001,0.47 0.001,0.706 V 6.831 c 0,0.235 -0.013,0.471 0.003,0.705 0.026,0.373 -0.101,0.558 -0.508,0.548 -0.906,-0.021 -1.812,-0.017 -2.718,-0.018 -0.419,0 -0.578,-0.183 -0.572,-0.615 0.022,-1.511 0.009,-3.022 0.009,-4.533 0,-4.062 0.001,-8.124 -0.002,-12.187 0,-0.878 -0.007,-0.885 -0.857,-0.887 -1.78,-0.004 -3.56,-0.005 -5.339,0.001 -0.764,0.002 -0.779,0.012 -0.78,0.769 -0.005,3.526 -0.002,7.051 -0.002,10.576 0,2.451 0.081,4.905 -0.019,7.352 -0.16,3.945 2.384,5.232 5.011,5.627 0.827,0.124 1.667,0.173 2.51,0.171 4.5,-0.01 9,-0.004 13.499,-0.006 1.379,0 2.75,-0.089 4.072,-0.532 2.296,-0.767 3.44,-2.326 3.449,-4.738 C 0.009,6.043 0,3.021 0,0" style="fill:#3551a9;fill-opacity:1;fill-rule:nonzero;stroke:none" id="path48"/>
        </g>
        <g id="g50" transform="translate(278.1668,751.9181)">
          <path d="m 0,0 c -0.349,-0.169 -0.62,-0.112 -0.883,-0.112 -6.044,-0.004 -12.087,-0.006 -18.13,-0.001 -1.213,0.002 -2.409,0.143 -3.564,0.541 -2.266,0.78 -3.379,2.289 -3.385,4.673 -0.013,4.666 -0.014,9.332 0,13.997 0.007,2.429 1.144,3.964 3.44,4.749 1.159,0.396 2.362,0.518 3.569,0.522 6.043,0.018 12.087,0.008 18.13,0.008 0.759,0 0.829,0.132 0.825,-0.823 C -0.004,22.043 0,20.533 0.001,19.022 c 0,-1.006 0.069,-0.939 -0.905,-0.942 -3.827,-0.011 -7.655,-0.025 -11.482,-0.035 -1.947,-0.005 -3.894,0.003 -5.842,-0.006 -0.746,-0.003 -0.774,-0.019 -0.749,-0.79 0.022,-0.626 -0.29,-1.425 0.155,-1.83 0.386,-0.352 1.158,-0.104 1.759,-0.104 5.371,-0.006 10.743,-0.003 16.115,-0.004 0.944,0 0.946,-0.002 0.948,-0.982 C 0.002,12.818 -0.004,11.308 0.002,9.797 0.006,8.838 -0.068,8.978 -0.824,8.977 -6.364,8.968 -11.903,8.959 -17.443,8.951 -18.985,8.948 -18.985,8.95 -18.985,7.445 c 0,-1.276 0,-1.285 1.325,-1.277 5.571,0.031 11.143,0.068 16.716,0.103 0.067,0 0.133,0.001 0.201,0 C -0.015,6.263 -0.007,6.263 -0.002,5.476 0.006,4.301 0,3.126 0,1.951 0.001,1.285 0,0.619 0,0" style="fill:#3551a9;fill-opacity:1;fill-rule:nonzero;stroke:none" id="path52"/>
        </g>
        <g id="g54" transform="translate(147.2693,751.8029)">
          <path d="m 0,0 c -3.056,0 -6.112,-0.002 -9.168,0.001 -0.94,0.001 -0.969,-0.175 -0.965,0.992 0.005,1.51 -0.004,3.021 0.003,4.532 0.003,0.862 0.011,0.868 0.893,0.861 C -5.107,6.353 -0.979,6.313 3.15,6.284 4.695,6.272 6.24,6.272 7.785,6.286 8.685,6.293 8.687,6.31 8.694,7.169 8.698,7.673 8.688,8.177 8.696,8.68 8.7,8.935 8.578,9.05 8.341,9.058 8.105,9.067 7.87,9.065 7.636,9.065 4.311,9.066 0.986,9.058 -2.338,9.07 c -1.346,0.004 -2.679,0.126 -3.973,0.539 -2.569,0.822 -3.801,2.463 -3.819,5.131 -0.01,1.477 -0.011,2.954 0,4.431 0.017,2.486 1.143,4.016 3.5,4.807 1.161,0.39 2.364,0.503 3.572,0.506 6.011,0.016 12.022,0.008 18.034,0.008 0.816,0 0.862,0.133 0.858,-0.89 -0.007,-1.511 -0.005,-3.022 0,-4.533 0.003,-0.947 0.024,-0.871 -0.873,-0.873 -5.607,-0.012 -11.216,-0.022 -16.823,-0.038 -1.537,-0.005 -1.272,0.141 -1.286,-1.269 -0.016,-1.462 -0.004,-1.462 1.496,-1.462 3.123,0 6.246,0.011 9.369,-0.006 1.511,-0.007 3.025,-0.076 4.475,-0.559 1.679,-0.558 2.96,-1.547 3.472,-3.335 C 15.824,10.969 15.826,10.4 15.83,9.831 15.838,8.455 15.833,7.078 15.832,5.702 15.829,2.441 14.302,0.663 11.07,0.188 10.208,0.062 9.34,-0.012 8.462,-0.006 5.642,0.011 2.82,0 0,0" style="fill:#3551a9;fill-opacity:1;fill-rule:nonzero;stroke:none" id="path56"/>
        </g>
        <g id="g58" transform="translate(204.8103,751.8029)">
          <path d="m 0,0 c -3.123,0 -6.246,-0.003 -9.369,0.002 -0.755,0.001 -0.765,0.013 -0.768,0.777 -0.007,1.578 -0.005,3.156 0,4.734 0.002,0.874 0.008,0.88 0.875,0.873 C -5.602,6.354 -1.942,6.311 1.717,6.284 3.597,6.271 5.478,6.28 7.358,6.283 7.66,6.283 7.962,6.304 8.264,6.312 8.559,6.321 8.665,6.48 8.661,6.763 8.653,7.4 8.65,8.039 8.662,8.676 8.669,9 8.488,9.069 8.222,9.065 7.986,9.063 7.751,9.066 7.516,9.066 c -3.257,0 -6.515,-0.003 -9.773,10e-4 -1.415,0.002 -2.816,0.128 -4.171,0.569 -2.472,0.803 -3.704,2.507 -3.71,5.112 -0.004,1.544 -0.008,3.089 10e-4,4.633 0.014,2.104 1.017,3.552 2.939,4.386 1.321,0.574 2.724,0.712 4.135,0.717 6.011,0.02 12.023,0.01 18.034,0.007 0.868,0 0.873,-0.009 0.876,-0.879 0.005,-1.51 0.004,-3.022 0,-4.532 C 15.845,18.208 15.84,18.2 14.977,18.197 9.671,18.183 4.365,18.171 -0.939,18.16 c -0.539,-0.002 -1.077,-0.017 -1.613,0.005 -0.412,0.017 -0.62,-0.097 -0.593,-0.559 0.034,-0.569 0.023,-1.142 0.004,-1.712 -0.011,-0.349 0.123,-0.481 0.468,-0.471 0.537,0.016 1.075,0.011 1.612,0.002 3.693,-0.059 7.388,0.144 11.078,-0.131 1.147,-0.086 2.253,-0.357 3.273,-0.899 1.58,-0.84 2.47,-2.17 2.532,-3.954 C 15.888,8.563 15.888,6.68 15.824,4.802 15.763,2.968 14.836,1.638 13.176,0.838 11.846,0.198 10.416,0.016 8.967,0.006 5.978,-0.015 2.989,0 0,0" style="fill:#3551a9;fill-opacity:1;fill-rule:nonzero;stroke:none" id="path60"/>
        </g>
        <g id="g62" transform="translate(191.9197,765.9767)">
          <path d="m 0,0 c 0,-2.82 0.003,-5.64 -0.002,-8.46 -0.001,-0.704 -0.01,-1.405 -0.227,-2.092 -0.484,-1.531 -1.555,-2.472 -3.001,-3.031 -1.076,-0.416 -2.21,-0.581 -3.355,-0.584 -6.145,-0.013 -12.291,-0.008 -18.436,-0.005 -0.797,0.001 -0.804,0.012 -0.807,0.843 -0.005,1.545 -0.004,3.089 0,4.634 0.003,0.911 0.008,0.921 0.945,0.906 5.405,-0.084 10.811,-0.122 16.217,-0.104 1.715,0.006 1.72,10e-4 1.711,1.72 -0.006,1.211 0.185,1.129 -1.128,1.13 -3.493,0.002 -6.985,-0.005 -10.478,0.004 -1.344,0.003 -2.683,0.084 -3.975,0.515 -2.232,0.743 -3.408,2.313 -3.425,4.659 -0.021,3.122 -0.008,6.245 -0.003,9.367 10e-4,0.805 0.014,0.812 0.843,0.815 1.847,0.005 3.694,0.007 5.541,-10e-4 0.747,-0.003 0.758,-0.015 0.76,-0.791 0.005,-2.484 -0.001,-4.969 0.003,-7.454 0.002,-0.807 0.008,-0.817 0.821,-0.817 3.426,-0.004 6.85,-0.004 10.276,10e-4 0.753,0.001 0.764,0.014 0.765,0.779 0.005,2.484 -0.001,4.968 0.004,7.453 10e-4,0.821 0.01,0.828 0.815,0.83 1.746,0.005 3.492,0.003 5.239,10e-4 0.889,-0.002 0.899,0.144 0.898,-0.951 C -0.002,6.245 0,3.123 0,0" style="fill:#3551a9;fill-opacity:1;fill-rule:nonzero;stroke:none" id="path64"/>
        </g>
        <g id="g66" transform="translate(401.0203,764.0865)">
          <path d="m 0,0 c 0,3.793 -0.002,7.585 0.002,11.378 0.001,0.818 0.01,0.827 0.822,0.829 1.78,0.006 3.559,0.005 5.338,0 C 6.988,12.205 6.999,12.197 7,11.39 7.006,8.906 7,6.422 7.004,3.938 7.005,3.074 7.013,3.069 7.877,3.065 8.851,3.061 9.825,3.082 10.798,3.057 c 0.486,-0.013 0.64,0.181 0.634,0.65 -0.015,1.207 -0.004,2.416 0.019,3.624 0.041,2.043 1.106,3.373 2.936,4.166 1.259,0.545 2.595,0.679 3.936,0.701 2.317,0.038 4.633,0.014 6.949,0.009 0.749,-0.002 0.759,-0.013 0.762,-0.782 0.007,-1.678 -0.01,-3.356 0.01,-5.034 0.005,-0.435 -0.136,-0.577 -0.572,-0.57 -1.947,0.034 -3.894,0.039 -5.841,0.054 -0.235,0.002 -0.47,-0.006 -0.705,0 -0.29,0.006 -0.42,-0.119 -0.414,-0.419 0.01,-0.604 0.022,-1.209 -0.004,-1.812 -0.02,-0.429 0.135,-0.599 0.57,-0.601 0.872,-0.003 1.743,-0.047 2.599,-0.252 0.853,-0.206 1.671,-0.492 2.393,-1.003 1.241,-0.879 1.878,-2.108 1.896,-3.6 0.04,-3.288 0.009,-6.578 0.03,-9.867 0.004,-0.508 -0.194,-0.617 -0.653,-0.613 -1.947,0.02 -3.895,0.003 -5.842,0.012 -0.683,0.003 -0.696,0.019 -0.698,0.751 -0.007,2.484 -0.002,4.968 -0.004,7.452 0,0.887 0.12,0.86 -0.875,0.86 -3.358,-10e-4 -6.715,0 -10.072,-10e-4 -0.934,0 -0.849,0.077 -0.849,-0.877 -0.002,-2.45 0.002,-4.901 -0.003,-7.351 -0.001,-0.825 -0.011,-0.833 -0.817,-0.836 -1.78,-0.006 -3.559,-0.005 -5.338,0 -0.837,0.002 -0.843,0.009 -0.844,0.904 C -0.001,-7.585 0,-3.793 0,0" style="fill:#a6a4a5;fill-opacity:1;fill-rule:nonzero;stroke:none" id="path68"/>
        </g>
        <g id="g70" transform="translate(387.9685,751.8029)">
          <path d="m 0,0 c -2.921,0 -5.842,0.001 -8.763,0 -1.045,-0.001 -2.077,0.12 -3.087,0.382 -2.485,0.647 -3.95,2.356 -3.914,4.999 0.063,4.598 0.015,9.196 0.018,13.795 0.002,2.417 1.126,3.983 3.401,4.773 1.19,0.412 2.426,0.533 3.667,0.536 6.01,0.016 12.02,0.009 18.029,0.006 0.862,0 0.868,-0.009 0.871,-0.884 0.004,-1.51 0.004,-3.02 -10e-4,-4.531 C 10.219,18.207 10.214,18.2 9.35,18.197 3.911,18.183 -1.527,18.171 -6.965,18.159 c -0.436,-10e-4 -0.873,-0.006 -1.309,-0.007 -0.289,0 -0.431,-0.133 -0.413,-0.43 0.009,-0.134 10e-4,-0.269 10e-4,-0.403 0,-3.39 -0.002,-6.78 0.002,-10.17 10e-4,-0.829 0.01,-0.86 0.829,-0.861 C -4.331,6.28 -0.806,6.289 2.719,6.297 5.002,6.302 7.284,6.3 9.566,6.333 10.111,6.341 10.241,6.14 10.232,5.628 10.204,3.984 10.229,2.339 10.22,0.695 10.216,0.017 10.2,0.003 9.467,0.002 6.547,-0.003 3.626,0 0.705,0 Z" style="fill:#a6a4a5;fill-opacity:1;fill-rule:nonzero;stroke:none" id="path72"/>
        </g>
        <g id="g74" transform="translate(236.4705,776.295)">
          <path d="m 0,0 c 3.995,0 7.99,0.001 11.985,-0.001 0.794,-0.001 0.901,0.196 0.896,-0.853 -0.008,-1.578 0.003,-3.155 -0.005,-4.732 -0.003,-0.693 -0.015,-0.703 -0.73,-0.708 -2.584,-0.017 -5.169,-0.027 -7.753,-0.039 -0.954,-0.005 -0.859,0.058 -0.86,-0.875 -10e-4,-5.269 0,-10.539 0,-15.808 0,-0.201 -10e-4,-0.402 0,-0.604 0.006,-0.904 0.046,-0.876 -0.88,-0.874 -1.678,0.005 -3.357,-0.002 -5.036,0.003 -1.209,0.004 -1.094,-0.126 -1.094,1.06 -0.002,5.168 0.002,10.337 -0.005,15.506 -10e-4,0.496 0.208,1.111 -0.104,1.457 -0.322,0.358 -0.947,0.123 -1.437,0.129 -2.417,0.026 -4.833,0.028 -7.25,0.045 -0.756,0.004 -0.765,0.013 -0.768,0.773 -0.007,1.51 -10e-4,3.02 -0.003,4.531 -10e-4,1.139 -0.026,0.988 0.959,0.989 C -8.057,0.002 -4.028,0 0,0" style="fill:#3551a9;fill-opacity:1;fill-rule:nonzero;stroke:none" id="path76"/>
        </g>
        <g id="g78" transform="translate(346.6306,776.295)">
          <path d="m 0,0 c 4.029,0 8.058,0.002 12.086,-0.001 0.852,0 0.858,-0.008 0.86,-0.885 0.005,-1.544 0.006,-3.088 0,-4.632 C 12.943,-6.281 12.935,-6.29 12.183,-6.294 9.631,-6.311 7.08,-6.321 4.529,-6.333 3.493,-6.338 3.601,-6.256 3.601,-7.239 3.599,-12.576 3.6,-17.912 3.6,-23.249 c 0,-0.235 -0.014,-0.471 0.003,-0.705 0.025,-0.375 -0.11,-0.545 -0.512,-0.543 -2.014,0.013 -4.028,0.011 -6.043,0.003 -0.357,-0.002 -0.473,0.166 -0.459,0.493 0.011,0.234 10e-4,0.469 10e-4,0.704 v 15.708 c 0,0.201 -0.025,0.406 0.005,0.603 0.082,0.55 -0.171,0.665 -0.677,0.663 -2.686,-0.009 -5.371,0.017 -8.056,0.026 -0.858,0.002 -0.841,-0.045 -0.839,0.808 0.005,1.577 -0.003,3.155 0.004,4.732 0.004,0.744 0.015,0.755 0.786,0.755 C -8.124,0.002 -4.062,0 0,0" style="fill:#a6a4a5;fill-opacity:1;fill-rule:nonzero;stroke:none" id="path80"/>
        </g>
        <g id="g82" transform="translate(369.5349,763.9562)">
          <path d="m 0,0 c 0,-3.758 0.001,-7.515 -0.002,-11.273 -0.001,-0.871 -0.008,-0.877 -0.875,-0.879 -1.712,-0.004 -3.424,-0.004 -5.135,0 -1.063,0.002 -0.991,-0.107 -0.991,0.958 -10e-4,3.456 0,6.911 0,10.367 0,4.093 -0.002,8.186 0.001,12.28 10e-4,0.874 0.008,0.881 0.87,0.884 1.711,0.005 3.423,10e-4 5.134,0.002 1.037,10e-4 0.999,0.08 0.999,-0.965 C -0.002,7.583 0,3.792 0,0" style="fill:#a6a4a5;fill-opacity:1;fill-rule:nonzero;stroke:none" id="path84"/>
        </g>
        <g id="g86" transform="translate(321.6219,767.2301)">
          <path d="m 0,0 c 2.718,0 5.437,0 8.154,-0.001 1.015,0 0.959,0.104 0.958,-0.992 C 9.111,-2.536 9.117,-4.08 9.11,-5.623 9.106,-6.344 9.095,-6.359 8.41,-6.359 c -4.832,0.004 -9.664,0.014 -14.496,0.021 -0.84,0.002 -1.68,0.033 -2.517,-0.007 -0.548,-0.027 -0.68,0.191 -0.672,0.699 0.024,1.644 0.015,3.288 0.005,4.932 -0.003,0.598 -0.049,0.734 0.712,0.726 C -5.706,-0.017 -2.853,0 0,0" style="fill:#3551a9;fill-opacity:1;fill-rule:nonzero;stroke:none" id="path88"/>
        </g>
        <path d="m 530.185,0 h -11.646 v 841.89 h 11.646 z" style="fill:#a6a4a5;fill-opacity:1;fill-rule:nonzero;stroke:none" id="path90"/>
        <g id="g92" transform="translate(555.0955,725.3365)">
          <path d="M 0,0 V 61.019 L -52.844,91.528 -105.688,61.019 V 0 l 52.844,-30.509 z" style="fill:#ffffff;fill-opacity:1;fill-rule:nonzero;stroke:none" id="path94"/>
        </g>
      </g>
    </g>
    <g id="g96">
      <g id="g98">
        <g id="g104">
          <g id="g106">
            <path d="m 469.516,785.021 c -0.487,-0.236 -0.679,-0.504 -0.679,-1.073 v 0 c 0.023,-7.991 0.02,-15.983 0.003,-23.974 v 0 c 0,-0.547 0.143,-0.831 0.662,-1.086 v 0 c 9.286,-4.566 18.56,-9.156 27.838,-13.739 v 0 c 1.861,-0.923 3.728,-1.834 5.596,-2.747 v 0 c 0.264,-0.012 0.486,0.103 0.71,0.22 v 0 c 4.365,2.268 8.728,4.54 13.094,6.805 v 0 c 2.052,1.066 4.11,2.114 6.163,3.177 v 0 c 3.678,1.905 7.353,3.815 11.027,5.722 v 0 c 2.294,1.189 4.589,2.384 6.884,3.575 v 0 c 2.21,1.151 4.421,2.306 6.641,3.444 v 0 c 0.324,0.165 0.47,0.349 0.47,0.73 v 0 c -0.014,5.447 -0.009,10.899 -0.011,16.346 v 0 c 0,0.109 0.017,0.226 -0.12,0.386 v 0 c -0.419,-0.206 -0.866,-0.417 -1.304,-0.647 v 0 c -1.947,-1.013 -3.893,-2.034 -5.84,-3.05 v 0 c -4.363,-2.271 -8.725,-4.54 -13.084,-6.82 v 0 c -2.232,-1.165 -4.451,-2.348 -6.677,-3.52 v 0 c -0.217,-0.114 -0.421,-0.29 -0.696,-0.249 v 0 c -0.129,-0.213 -0.363,-0.272 -0.562,-0.378 v 0 c -5.298,-2.776 -10.6,-5.546 -15.893,-8.332 v 0 c -0.387,-0.207 -0.678,-0.216 -1.071,-0.02 v 0 c -5.886,2.927 -11.777,5.843 -17.682,8.739 v 0 c -0.246,0.119 -0.418,0.252 -0.523,0.42 v 0 l -7.356,4.205 v 15.582 c -2.529,-1.237 -5.059,-2.477 -7.59,-3.716" style="fill:url(#linearGradient114);stroke:none" id="path116"/>
          </g>
        </g>
      </g>
    </g>
    <g id="g118">
      <g id="g120">
        <g id="g126">
          <g id="g128">
            <path d="m 536.395,751.651 c -2.733,-1.519 -5.45,-3.066 -8.171,-4.604 v 0 c -1.769,-0.999 -3.537,-2.001 -5.307,-2.996 v 0 c -0.186,-0.104 -0.346,-0.219 -0.436,-0.415 v 0 c 0,-1.855 -0.016,-3.711 0.009,-5.565 v 0 c 0.005,-0.422 -0.116,-0.64 -0.503,-0.831 v 0 c -6.064,-2.991 -12.119,-5.996 -18.167,-9.015 v 0 c -0.433,-0.216 -0.756,-0.222 -1.187,0.015 v 0 c -6.808,3.743 -13.626,7.469 -20.444,11.195 v 0 c -3.568,1.951 -7.14,3.893 -10.711,5.84 v 0 c -0.1,-0.092 -1.33,0.551 -2.54,1.195 v 0 c -1.224,0.651 -2.429,1.302 -2.429,1.193 v 0 c -0.006,-5.43 -0.011,-16.836 0,-16.899 v 0 c 0,-0.298 4.814,-3.02 5.116,-3.21 v 0 c 0.038,-0.025 0.074,-0.053 0.114,-0.075 v 0 c 10.206,-5.579 20.414,-11.156 30.612,-16.747 v 0 c 0.396,-0.217 0.681,-0.2 1.068,-0.007 v 0 c 6.91,3.44 13.826,6.866 20.741,10.295 v 0 c 4.439,2.202 8.873,4.415 13.322,6.597 v 0 c 0.431,0.21 0.52,0.455 0.52,0.888 v 0 c -0.013,7.373 -0.009,14.745 -0.01,22.117 v 0 c 0,0.595 -0.009,1.19 -0.013,1.786 v 0 c -0.616,-0.067 -1.076,-0.474 -1.584,-0.757" style="fill:url(#linearGradient136);stroke:none" id="path138"/>
          </g>
        </g>
      </g>
    </g>
    <g id="g140">
      <g id="g142">
        <g id="g148">
          <g id="g150">
            <path d="m 502.977,801.511 c -0.142,-0.232 -0.408,-0.269 -0.623,-0.375 v 0 c -2.497,-1.235 -5.001,-2.457 -7.501,-3.687 v 0 c -5.749,-2.82 -11.497,-5.644 -17.246,-8.466 v 0 c -0.169,-0.08 -0.335,-0.163 -0.501,-0.246 v 0 -15.582 l 7.356,-4.205 c -0.107,0.169 -0.153,0.378 -0.144,0.659 v 0 c 0.009,0.363 0.018,0.731 0.021,1.097 v 0 c 0.019,1.235 0.009,2.475 -0.017,3.71 v 0 c -0.01,0.463 0.153,0.676 0.56,0.873 v 0 c 5.683,2.775 11.357,5.568 17.032,8.355 v 0 c 0.369,0.18 0.741,0.493 1.114,0.493 v 0 c 0.369,0 0.742,-0.313 1.105,-0.496 v 0 c 5.256,-2.663 10.509,-5.327 15.762,-7.991 v 0 c 0.084,-0.04 0.166,-0.078 0.246,-0.115 v 0 c 0.322,-0.031 0.574,0.143 0.828,0.292 v 0 c 4.52,2.596 9.041,5.196 13.56,7.797 v 0 c 0.399,0.226 0.796,0.452 1.194,0.676 v 0 c 0.197,0.112 0.415,0.198 0.51,0.432 v 0 c -1.097,0.559 -2.191,1.123 -3.291,1.679 v 0 c -8.401,4.259 -16.805,8.512 -25.2,12.781 v 0 c -1.504,0.761 -3.03,1.475 -4.491,2.319 v 0 z" style="fill:url(#linearGradient158);stroke:none" id="path160"/>
          </g>
        </g>
      </g>
    </g>
    <g id="g162">
      <g id="g164" clip-path="url(#clipPath168)">
        <g id="g170">
          <g id="g172"/>
          <g id="g258">
            <g clip-path="url(#clipPath176)" opacity="0.199997" id="g256">
              <g id="g230">
                <g id="g220"/>
                <g id="g228">
                  <g clip-path="url(#clipPath180)" opacity="0.25" id="g226">
                    <g transform="translate(-0.0783,297.795)" id="g224">
                      <path d="m 0,0 c 0.562,-0.876 1.453,-1.587 2.812,-2.251 51.454,-25.296 102.835,-50.734 154.242,-76.125 10.322,-5.11 20.668,-10.156 31.013,-15.219 1.461,-0.071 2.694,0.569 3.934,1.216 24.19,12.573 48.357,25.154 72.548,37.712 11.38,5.899 22.768,11.712 34.149,17.596 20.384,10.559 40.744,21.141 61.105,31.709 12.715,6.587 25.422,13.205 38.137,19.807 12.249,6.381 24.506,12.779 36.803,19.08 1.793,0.917 12.266,7.243 12.266,7.243 -0.079,30.185 -1.572,63.45 -1.588,93.635 0,0 -6.35,-3.167 -8.806,-4.115 -2.314,-1.145 -4.794,-2.322 -7.219,-3.585 -10.795,-5.624 -21.568,-11.27 -32.364,-16.901 C 372.865,97.213 348.69,84.64 324.539,72.011 312.172,65.551 299.875,58.996 287.547,52.504 c -1.209,-0.632 -2.338,-1.604 -3.862,-1.382 -0.711,-1.169 -2.014,-1.509 -3.112,-2.093 -29.355,-15.377 -58.735,-30.722 -88.059,-46.17 -2.148,-1.137 -3.767,-1.184 -5.939,-0.11 -32.617,16.222 -65.259,32.38 -97.971,48.42 -1.366,0.672 -2.314,1.398 -2.898,2.338 l -40.76,23.298 v 86.338 C 30.936,156.279 16.917,149.408 2.891,142.553 1.54,141.89 0.601,141.195 0,140.271" style="fill:none;stroke:url(#linearGradient190);stroke-width:2;stroke-linecap:butt;stroke-linejoin:miter;stroke-miterlimit:10;stroke-dasharray:none;stroke-opacity:1" id="path222"/>
                    </g>
                  </g>
                </g>
              </g>
              <g id="g242">
                <g id="g232"/>
                <g id="g240">
                  <g clip-path="url(#clipPath194)" opacity="0.25" id="g238">
                    <g transform="translate(-0.0783,130.4591)" id="g236">
                      <path d="m 0,0 c 6.809,-4.059 13.75,-8.016 14.571,-8.529 0.214,-0.142 0.419,-0.292 0.64,-0.418 56.548,-30.912 113.11,-61.808 169.618,-92.798 2.189,-1.2 3.768,-1.106 5.916,-0.031 38.279,19.064 76.608,38.035 114.919,57.045 24.601,12.201 49.163,24.459 73.819,36.549 2.385,1.169 2.883,2.52 2.875,4.92 -0.063,40.848 -0.047,81.702 -0.047,122.549 0,3.301 -0.056,6.595 -0.08,9.896 -3.411,-0.379 -5.955,-2.63 -8.774,-4.194 -15.14,-8.419 -30.192,-16.996 -45.277,-25.517 -9.801,-5.536 -19.594,-11.08 -29.403,-16.593 -1.027,-0.577 -1.92,-1.217 -2.417,-2.307 0,-10.274 -0.079,-20.55 0.048,-30.832 0.031,-2.338 -0.632,-3.538 -2.788,-4.604 C 260.031,28.566 226.474,11.91 192.964,-4.817 190.571,-6.01 188.778,-6.049 186.386,-4.73 148.666,16.009 110.884,36.653 73.109,57.298 53.341,68.102 33.55,78.874 13.766,89.654 13.221,89.157 6.61,92.608 0,96.123" style="fill:none;stroke:url(#linearGradient204);stroke-width:2;stroke-linecap:butt;stroke-linejoin:miter;stroke-miterlimit:10;stroke-dasharray:none;stroke-opacity:1" id="path234"/>
                    </g>
                  </g>
                </g>
              </g>
              <g id="g254">
                <g id="g244"/>
                <g id="g252">
                  <g clip-path="url(#clipPath208)" opacity="0.25" id="g250">
                    <g transform="translate(372.4842,438.7472)" id="g248">
                      <path d="m 0,0 c -0.524,-1.301 -1.73,-1.778 -2.826,-2.396 -2.206,-1.239 -4.411,-2.492 -6.617,-3.746 -25.044,-14.411 -50.088,-28.821 -75.131,-43.2 -1.413,-0.825 -2.81,-1.793 -4.587,-1.619 -0.444,0.207 -0.904,0.413 -1.365,0.636 -29.107,14.759 -58.213,29.518 -87.336,44.278 -2.016,1.016 -4.078,2.746 -6.126,2.746 -2.063,0 -4.126,-1.73 -6.174,-2.73 -31.44,-15.442 -62.878,-30.916 -94.366,-46.294 -2.253,-1.095 -3.158,-2.27 -3.111,-4.841 0.144,-6.84 0.206,-13.712 0.096,-20.552 -0.016,-2.032 -0.063,-4.063 -0.111,-6.079 -0.048,-1.555 0.206,-2.714 0.794,-3.65 l -40.756,23.299 v 86.335 c 0.921,0.46 1.841,0.92 2.777,1.365 31.852,15.632 63.704,31.281 95.557,46.913 13.854,6.808 27.725,13.585 41.564,20.426 1.191,0.587 2.667,0.793 3.445,2.078 h 1.523 c 8.094,-4.681 16.553,-8.633 24.885,-12.855 C -111.349,56.467 -64.784,32.899 -18.236,9.3 -12.142,6.221 -6.079,3.095 0,0 Z" style="fill:none;stroke:url(#linearGradient218);stroke-width:2;stroke-linecap:butt;stroke-linejoin:miter;stroke-miterlimit:10;stroke-dasharray:none;stroke-opacity:1" id="path246"/>
                    </g>
                  </g>
                </g>
              </g>
            </g>
          </g>
        </g>
      </g>
    </g>
  </g>
</svg>
